{"buffers":[{"uri":"data:application/octet-stream;base64,","byteLength":56}],"accessors":[{"bufferView":0,"componentType":5123,"count":3,"type":"SCALAR"},{"bufferView":1,"componentType":5126,"count":3,"type":"VEC3","max":[0,10,10],"min":[0,0,0]},{"bufferView":2,"componentType":5121,"normalized":true,"count":3,"type":"VEC3"}],"asset":{"generator":"qmuntal/gltf","version":"2.0"},"bufferViews":[{"buffer":0,"byteLength":6,"target":34963},{"buffer":0,"byteOffset":8,"byteLength":36,"target":34962},{"buffer":0,"byteOffset":44,"byteLength":12,"byteStride":4,"target":34962}],"meshes":[{"name":"Pyramid","primitives":[{"attributes":{"COLOR_0":2,"POSITION":1},"indices":0}]}],"nodes":[{"name":"Pyramid","mesh":0}],"scene":0,"scenes":[{"name":"Root Scene","nodes":[0]}]}